<?xml version="1.0" encoding="utf-8"?>
<!-- Generator: Adobe Illustrator 16.0.3, SVG Export Plug-In . SVG Version: 6.00 Build 0)  -->
<!DOCTYPE svg PUBLIC "-//W3C//DTD SVG 1.1//EN" "http://www.w3.org/Graphics/SVG/1.1/DTD/svg11.dtd">
<svg version="1.1" id="Calque_1" xmlns="http://www.w3.org/2000/svg" xmlns:xlink="http://www.w3.org/1999/xlink" x="0px" y="0px"
	 width="159px" height="46px" viewBox="0 0 159 46" enable-background="new 0 0 159 46" xml:space="preserve">
<path fill="none" d="M23.799,29.251c0,1.846-0.024,3.69,0.012,5.534C23.775,32.941,23.799,31.097,23.799,29.251
	c0-1.343,0.022-2.686,0.009-4.029C23.821,26.565,23.799,27.908,23.799,29.251z"/>
<path fill="#0071BC" d="M0,0c0,18.838,0,27.162,0,46c54.289,0,104.711,0,159,0c0-18.838,0-27.162,0-46C104.711,0,54.289,0,0,0z
	 M27.792,19.532c-0.171,1.012-0.234,2.044-0.316,3.07c-0.039,0.486-0.287,0.65-0.74,0.643c-0.732-0.011-1.468,0.044-2.197-0.012
	c-0.767-0.059-1.052,0.184-1.026,0.992c0.014,0.447,0.022,0.895,0.026,1.342c0.013,1.344-0.009,2.686-0.009,4.029
	c0,1.846-0.024,3.689,0.012,5.533c0.013,0.656-0.163,0.924-0.86,0.893c-1.165-0.051-2.334-0.055-3.498,0.002
	c-0.77,0.039-1.029-0.188-1.02-0.992c0.041-3.58-0.007-7.162,0.036-10.742c0.01-0.815-0.201-1.144-1.04-1.057
	c-0.59,0.062-1.193,0-1.79,0.01c-0.468,0.007-0.702-0.188-0.698-0.674c0.01-1.058,0.01-2.116,0-3.174
	c-0.005-0.477,0.203-0.692,0.683-0.685c0.678,0.011,1.357-0.024,2.034,0.004c0.588,0.025,0.836-0.185,0.802-0.799
	c-0.042-0.758-0.021-1.519-0.004-2.279c0.079-3.539,1.717-5.448,5.229-5.872c1.277-0.155,2.594,0.027,3.894,0.043
	c0.507,0.006,0.632,0.276,0.622,0.731c-0.02,0.949-0.03,1.9,0.003,2.848c0.02,0.549-0.229,0.718-0.723,0.713
	c-0.651-0.006-1.303-0.013-1.953,0.022c-1.126,0.061-1.512,0.405-1.624,1.511c-0.079,0.78-0.063,1.569-0.109,2.353
	c-0.031,0.523,0.186,0.737,0.71,0.727c0.949-0.019,1.899,0.006,2.848-0.005C27.668,18.7,27.903,18.873,27.792,19.532z
	 M45.016,35.385c0,0.451-0.16,0.633-0.615,0.627c-1.275-0.016-2.55-0.027-3.825,0.006c-0.591,0.016-0.767-0.238-0.729-0.775
	c0.026-0.373,0.005-0.746,0.005-1.297c-0.87,1.131-1.8,1.943-3.068,2.209c-3.98,0.834-7.715-0.857-8.604-5.908
	c-0.411-2.332-0.401-4.703,0.301-7.007c1.142-3.749,4.747-5.699,8.451-4.602c1.021,0.303,1.477,0.631,2.883,2.089
	c0.023-0.112,0.033-0.138,0.034-0.165c0.039-1.856,0.039-1.856,1.947-1.853c0.868,0.001,1.736,0.009,2.604,0.008
	c0.433-0.001,0.619,0.177,0.618,0.638C45.006,24.697,45.007,30.041,45.016,35.385z M52.262,29.16
	c0.344,2.191,2.045,3.279,4.379,2.928c0.93-0.141,1.839-0.408,2.923-0.654c0.34,1.098,0.725,2.266,1.042,3.453
	c0.04,0.148-0.23,0.504-0.425,0.572c-0.812,0.291-1.634,0.602-2.479,0.734c-1.861,0.293-3.73,0.266-5.557-0.273
	c-2.797-0.824-4.517-2.668-5.144-5.523c-0.418-1.906-0.435-3.832-0.071-5.732c0.693-3.612,3.196-5.801,6.882-6.193
	c1.994-0.211,3.952-0.133,5.85,0.563c1.066,0.392,1.097,0.479,0.771,1.529c-0.287,0.923-0.595,1.84-0.896,2.766
	c-0.865-0.215-1.639-0.455-2.43-0.589c-0.581-0.099-1.191-0.127-1.778-0.071c-1.737,0.166-2.829,1.127-3.078,2.93
	C52.091,26.766,52.08,27.998,52.262,29.16z M76.509,29.303c-2.986,0-5.972,0-8.957,0c-0.293,0-0.585,0-0.871,0
	c-0.127,1.766,0.839,2.861,2.615,3.014c1.968,0.172,3.898-0.021,5.778-0.652c0.206-0.068,0.413-0.133,0.622-0.188
	c0.074-0.02,0.157-0.002,0.316-0.002c0.291,1.09,0.608,2.178,0.847,3.281c0.035,0.162-0.273,0.531-0.482,0.592
	c-1.196,0.336-2.398,0.773-3.622,0.861c-1.771,0.127-3.592,0.186-5.336-0.082c-3.586-0.551-5.599-2.537-6.076-6.117
	c-0.258-1.934-0.217-3.977,0.101-5.902c0.524-3.172,3.078-5.282,6.443-5.604c1.229-0.118,2.509-0.145,3.72,0.059
	c3.17,0.535,5.129,2.585,5.596,5.824c0.203,1.414,0.139,2.867,0.197,4.301C77.428,29.367,76.945,29.303,76.509,29.303z
	 M95.838,31.863c-1.469,4.279-5.66,5.213-8.84,4.066c-0.947-0.342-1.738-1.111-2.578-1.668c0.002-0.027-0.01,0.098-0.014,0.223
	c-0.031,1.523-0.031,1.523-1.596,1.523c-0.869,0-1.74-0.047-2.604,0.016c-0.775,0.055-0.959-0.25-0.957-0.979
	c0.022-6.402,0.014-12.807,0.014-19.21c0-1.628,0.013-3.256-0.007-4.884c-0.007-0.521,0.124-0.786,0.709-0.825
	c1.352-0.09,2.702-0.23,4.047-0.387c0.668-0.078,0.697,0.311,0.695,0.79c-0.004,2.469,0,4.938,0,7.408c0,0.812,0,1.624,0,2.697
	c1.506-1.823,3.289-2.451,5.35-2.23c3.16,0.339,5.201,2.041,5.988,5.125C96.754,26.303,96.779,29.119,95.838,31.863z"/>
<path fill="#FFFFFF" d="M90.328,18.059c-2.061-0.221-3.844,0.407-5.35,2.23c0-1.073,0-1.885,0-2.697c0-2.469-0.004-4.938,0-7.408
	c0.002-0.479-0.027-0.868-0.695-0.79c-1.346,0.157-2.695,0.297-4.047,0.387c-0.585,0.039-0.716,0.304-0.709,0.825
	c0.02,1.627,0.007,3.256,0.007,4.884c0,6.403,0.009,12.807-0.014,19.21c-0.002,0.728,0.182,1.033,0.957,0.978
	c0.863-0.063,1.734-0.015,2.604-0.015c1.564,0,1.564,0,1.596-1.524c0.004-0.125,0.016-0.25,0.014-0.222
	c0.84,0.557,1.631,1.326,2.578,1.667c3.18,1.147,7.371,0.213,8.84-4.066c0.941-2.744,0.916-5.56,0.209-8.335
	C95.529,20.099,93.488,18.397,90.328,18.059z M91.145,29.269c-0.242,1.707-1.59,2.603-3.193,2.476
	c-1.701-0.134-2.742-1.149-2.924-2.914c-0.061-0.589-0.01-1.189-0.01-1.785l-0.072-0.002c0.037-0.701,0.008-1.416,0.129-2.103
	c0.293-1.665,1.344-2.576,2.922-2.627c1.645-0.054,2.887,0.766,3.133,2.443C91.346,26.234,91.354,27.791,91.145,29.269z"/>
<path fill="#FFFFFF" d="M44.67,18.372c-0.868,0.001-1.736-0.007-2.604-0.008c-1.908-0.003-1.908-0.003-1.947,1.853
	c-0.001,0.027-0.011,0.053-0.034,0.165c-1.406-1.458-1.862-1.786-2.883-2.089c-3.704-1.098-7.309,0.853-8.451,4.602
	c-0.702,2.304-0.711,4.675-0.301,7.007c0.889,5.052,4.624,6.743,8.604,5.909c1.268-0.267,2.198-1.079,3.068-2.209
	c0,0.55,0.021,0.924-0.005,1.296c-0.037,0.538,0.138,0.792,0.729,0.776c1.274-0.033,2.55-0.021,3.825-0.006
	c0.455,0.005,0.616-0.176,0.615-0.627c-0.009-5.344-0.01-10.688,0.001-16.031C45.289,18.549,45.103,18.371,44.67,18.372z
	 M39.746,29.243c-0.171,1.606-1.462,2.57-2.989,2.511c-1.724-0.067-2.809-1.081-3.021-2.897c-0.072-0.613-0.011-1.242-0.011-1.864
	l-0.123-0.007c0.084-0.776,0.097-1.569,0.268-2.325c0.361-1.596,1.433-2.385,3.041-2.348c1.503,0.034,2.661,0.929,2.83,2.493
	C39.897,26.271,39.902,27.779,39.746,29.243z"/>
<path fill="#FFFFFF" d="M71.876,18.218c-1.211-0.204-2.49-0.177-3.72-0.059c-3.365,0.322-5.919,2.432-6.443,5.604
	c-0.317,1.926-0.358,3.968-0.101,5.901c0.478,3.58,2.49,5.567,6.076,6.117c1.744,0.268,3.565,0.21,5.336,0.082
	c1.224-0.088,2.426-0.525,3.622-0.861c0.209-0.06,0.518-0.429,0.482-0.591c-0.238-1.104-0.556-2.191-0.847-3.282
	c-0.159,0-0.242-0.017-0.316,0.003c-0.209,0.054-0.416,0.119-0.622,0.188c-1.88,0.63-3.811,0.823-5.778,0.652
	c-1.776-0.153-2.742-1.248-2.615-3.014c0.286,0,0.578,0,0.871,0c2.985,0,5.971,0,8.957,0c0.437,0,0.919,0.063,0.891-0.615
	c-0.059-1.435,0.006-2.887-0.197-4.301C77.005,20.803,75.046,18.753,71.876,18.218z M72.741,25.266c-2.004,0-3.911,0-5.896,0
	c0.029-1.18,0.176-2.277,1.22-2.944c1.105-0.708,2.33-0.734,3.469-0.1C72.683,22.861,72.774,24.017,72.741,25.266z"/>
<path fill="#FFFFFF" d="M27.354,18.362c-0.949,0.011-1.899-0.014-2.848,0.005c-0.524,0.01-0.742-0.204-0.71-0.727
	c0.047-0.784,0.03-1.573,0.109-2.353c0.112-1.105,0.498-1.45,1.624-1.511c0.649-0.036,1.302-0.029,1.953-0.022
	c0.494,0.005,0.743-0.164,0.723-0.713c-0.034-0.948-0.023-1.899-0.003-2.848c0.01-0.455-0.115-0.725-0.622-0.731
	c-1.299-0.016-2.616-0.198-3.894-0.043c-3.511,0.424-5.15,2.333-5.229,5.872c-0.017,0.76-0.038,1.521,0.004,2.279
	c0.034,0.615-0.214,0.824-0.802,0.799c-0.677-0.028-1.356,0.007-2.034-0.004c-0.48-0.008-0.688,0.208-0.683,0.685
	c0.01,1.058,0.01,2.116,0,3.174c-0.004,0.486,0.23,0.681,0.698,0.674c0.597-0.01,1.199,0.052,1.79-0.01
	c0.839-0.087,1.05,0.241,1.04,1.057c-0.043,3.58,0.005,7.162-0.036,10.742c-0.009,0.804,0.25,1.03,1.02,0.992
	c1.164-0.058,2.333-0.053,3.498-0.002c0.698,0.03,0.874-0.237,0.86-0.893c-0.036-1.844-0.012-3.688-0.012-5.534
	c0-1.343,0.022-2.686,0.009-4.029c-0.004-0.447-0.012-0.895-0.026-1.342c-0.026-0.808,0.259-1.051,1.026-0.992
	c0.729,0.056,1.464,0.001,2.197,0.012c0.453,0.007,0.701-0.157,0.74-0.643c0.082-1.025,0.145-2.058,0.316-3.07
	C28.173,18.529,27.938,18.355,27.354,18.362z"/>
<path fill="#FFFFFF" d="M55.6,22.325c0.587-0.057,1.197-0.028,1.778,0.071c0.791,0.135,1.564,0.374,2.43,0.589
	c0.301-0.926,0.608-1.843,0.896-2.766c0.326-1.05,0.296-1.137-0.771-1.529c-1.897-0.697-3.855-0.775-5.85-0.563
	c-3.687,0.392-6.189,2.581-6.882,6.193c-0.364,1.899-0.348,3.825,0.071,5.732c0.626,2.854,2.347,4.699,5.144,5.523
	c1.826,0.538,3.695,0.565,5.557,0.272c0.845-0.132,1.667-0.442,2.479-0.733c0.194-0.069,0.465-0.425,0.425-0.573
	c-0.317-1.188-0.702-2.355-1.042-3.453c-1.084,0.247-1.993,0.515-2.923,0.654c-2.334,0.353-4.035-0.736-4.379-2.928
	c-0.182-1.162-0.171-2.394-0.01-3.56C52.771,23.453,53.863,22.491,55.6,22.325z"/>
<path fill="#0071BC" d="M87.996,22.313c-1.578,0.052-2.629,0.962-2.922,2.627c-0.121,0.687-0.092,1.401-0.129,2.103l0.072,0.002
	c0,0.596-0.051,1.196,0.01,1.785c0.182,1.765,1.223,2.78,2.924,2.914c1.604,0.127,2.951-0.769,3.193-2.476
	c0.209-1.478,0.201-3.034-0.016-4.513C90.883,23.079,89.641,22.259,87.996,22.313z"/>
<path fill="#0071BC" d="M36.91,22.313c-1.608-0.037-2.68,0.751-3.041,2.348c-0.171,0.756-0.183,1.549-0.268,2.325l0.123,0.007
	c0,0.622-0.061,1.251,0.011,1.864c0.212,1.816,1.297,2.83,3.021,2.897c1.527,0.06,2.817-0.904,2.989-2.511
	c0.156-1.464,0.152-2.973-0.006-4.438C39.57,23.241,38.413,22.347,36.91,22.313z"/>
<path fill="#0071BC" d="M71.533,22.221c-1.139-0.634-2.363-0.608-3.469,0.1c-1.044,0.667-1.19,1.765-1.22,2.944
	c1.985,0,3.893,0,5.896,0C72.774,24.017,72.683,22.861,71.533,22.221z"/>
<g>
	<path fill-rule="evenodd" clip-rule="evenodd" d="M130.217,12.923c-0.066-0.377-0.117-0.758-0.203-1.13
		c-0.244-1.069-0.703-2.034-1.443-2.853c-0.918-1.016-2.07-1.612-3.4-1.88c-0.637-0.127-1.279-0.241-1.932-0.149
		c-1.232,0.171-2.387,0.576-3.453,1.216c-1.596,0.958-2.877,2.212-3.658,3.928c-0.066,0.149-0.141,0.168-0.287,0.143
		c-1.574-0.272-3.154-0.3-4.738-0.107c-0.498,0.061-0.496,0.061-0.725-0.375c-0.783-1.503-1.947-2.652-3.385-3.518
		c-1.363-0.821-2.824-1.353-4.447-1.302c-0.193,0.007-0.385,0.069-0.578,0.088c-2.545,0.261-4.65,2.085-5.258,4.576
		c-0.115,0.475-0.195,0.959-0.26,1.444c-0.014,0.105,0.09,0.278,0.188,0.326c0.07,0.035,0.238-0.061,0.326-0.139
		c0.096-0.085,0.146-0.221,0.221-0.331c0.953-1.401,2.207-2.383,3.879-2.784c1.881-0.451,3.578,0.561,4.061,2.436
		c0.133,0.517,0.217,1.045,0.342,1.565c0.041,0.171,0.006,0.269-0.121,0.391c-0.416,0.4-0.82,0.815-1.211,1.241
		c-0.115,0.127-0.227,0.156-0.387,0.174c-0.537,0.06-1.088,0.093-1.602,0.241c-1.254,0.357-2.285,1.109-3.217,1.996
		c-0.336,0.318-0.645,0.666-0.947,1.015c-0.207,0.237-0.158,0.413,0.127,0.544c0.146,0.066,0.295,0.126,0.443,0.182
		c0.924,0.341,1.873,0.5,2.924,0.388c-0.006,0.008-0.012,0.015-0.018,0.022c0.002,0,0.002,0,0.004,0
		c0.072-0.012,0.143-0.017,0.219-0.01c0.152,0.015,0.27,0.119,0.307,0.258c0.004-0.002,0.006-0.004,0.008-0.007
		c0,0.01-0.002,0.018-0.002,0.028c0.004,0.026,0.008,0.052,0.008,0.081c-0.002,0.042-0.014,0.079-0.033,0.111
		c-0.045,0.361-0.09,0.688-0.121,1.015c-0.068,0.764-0.162,1.523-0.068,2.3c0.088,0.739,0.223,1.46,0.477,2.155
		c0.385,1.047,0.898,2.029,1.604,2.892c0.549,0.671,1.113,1.34,1.744,1.932c0.629,0.593,1.34,1.101,2.033,1.625
		c0.314,0.239,0.674,0.424,1.004,0.646c0.098,0.065,0.195,0.163,0.24,0.268c0.303,0.716,0.623,1.428,0.871,2.162
		c0.133,0.393,0.152,0.826,0.199,1.244c0.021,0.202,0.029,0.389,0.25,0.481c0.211,0.09,0.338-0.045,0.457-0.175
		c0.219-0.241,0.428-0.491,0.676-0.78c0.047,0.207,0.096,0.385,0.123,0.566c0.078,0.521,0.127,1.047,0.225,1.564
		c0.143,0.768,0.316,1.531,0.482,2.295c0.014,0.066,0.055,0.141,0.105,0.181c0.086,0.065,0.213,0.167,0.279,0.142
		c0.104-0.039,0.221-0.162,0.244-0.269c0.191-0.847,0.357-1.699,0.545-2.547c0.047-0.219,0.146-0.424,0.246-0.702
		c0.223,0.394,0.385,0.726,0.586,1.03c0.281,0.419,0.586,0.819,0.895,1.218c0.064,0.082,0.188,0.142,0.293,0.164
		c0.254,0.056,0.412-0.134,0.336-0.382c-0.17-0.563-0.346-1.123-0.51-1.689c-0.18-0.621-0.242-1.248-0.016-1.912
		c0.061,0.048,0.115,0.082,0.16,0.127c0.273,0.29,0.525,0.606,0.828,0.863c0.125,0.105,0.373,0.15,0.533,0.107
		c0.221-0.059,0.191-0.315,0.145-0.486c-0.303-1.091-0.037-2.076,0.553-2.993c0.299-0.463,0.777-0.737,1.219-1.052
		c0.594-0.429,1.193-0.86,1.73-1.355c0.658-0.606,1.299-1.243,1.863-1.935c0.953-1.167,1.662-2.477,2.064-3.943
		c0.27-0.987,0.309-1.993,0.26-3c-0.029-0.574-0.127-1.143-0.186-1.721c-0.004-0.007-0.01-0.012-0.012-0.019
		c-0.027-0.075-0.027-0.139-0.008-0.196c0,0-0.002-0.002-0.002-0.003c0.002,0,0.002,0,0.004,0c0.023-0.075,0.084-0.135,0.16-0.179
		c0.004-0.003,0.008-0.006,0.012-0.008c0.006-0.002,0.012-0.005,0.016-0.008c0.014-0.006,0.027-0.013,0.041-0.018
		c0.051-0.022,0.104-0.039,0.156-0.048c0.043-0.007,0.082-0.011,0.121-0.011c-0.002-0.003-0.006-0.006-0.008-0.009
		c0.088-0.004,0.131-0.011,0.172-0.007c1.102,0.104,2.143-0.133,3.146-0.568c0.328-0.143,0.381-0.332,0.129-0.59
		c-0.539-0.554-1.063-1.135-1.66-1.621c-1.207-0.983-2.559-1.649-4.174-1.609c-0.078,0.002-0.18-0.06-0.24-0.124
		c-0.334-0.346-0.662-0.697-0.98-1.056c-0.055-0.062-0.098-0.173-0.082-0.249c0.137-0.681,0.27-1.363,0.438-2.036
		c0.348-1.399,1.746-2.481,3.082-2.44c1.193,0.037,2.24,0.454,3.189,1.151c0.742,0.544,1.338,1.225,1.814,2.012
		c0.086,0.141,0.195,0.277,0.385,0.213C130.236,13.276,130.246,13.102,130.217,12.923z M105.234,11.349
		c-0.584-0.969-1.414-1.644-2.57-1.849c-0.986-0.174-1.914,0.026-2.814,0.414c-0.9,0.387-1.676,0.953-2.342,1.669
		c-0.072,0.076-0.121,0.173-0.182,0.26c-0.041-0.027-0.082-0.055-0.125-0.083c0.072-0.213,0.143-0.425,0.215-0.639
		c0.273-0.813,0.715-1.524,1.342-2.105c0.744-0.69,1.609-1.182,2.619-1.363c0.494-0.089,0.994-0.181,1.492-0.189
		c1.281-0.021,2.451,0.405,3.553,1.019c0.906,0.504,1.709,1.144,2.398,1.92c0.715,0.802,1.285,1.694,1.51,2.758
		c0.125,0.585-0.107,1.07-0.549,1.471c-0.604,0.546-1.311,0.809-2.109,0.883c-0.822,0.076-1.482-0.464-1.635-1.283
		C105.855,13.249,105.762,12.225,105.234,11.349z M116.186,36.474c-0.279-0.304-0.553-0.612-0.834-0.911
		c-0.246-0.259-0.4-0.233-0.549,0.098c-0.291,0.647-0.367,1.324-0.225,2.021c0.068,0.343,0.137,0.687,0.148,1.06
		c-0.221-0.429-0.445-0.857-0.666-1.287c-0.023-0.046-0.031-0.104-0.061-0.146c-0.088-0.121-0.203-0.345-0.27-0.332
		c-0.16,0.031-0.338,0.143-0.439,0.276c-0.32,0.416-0.443,0.919-0.553,1.42c-0.082,0.378-0.141,0.761-0.215,1.142
		c-0.006,0.03-0.035,0.056-0.086,0.128c-0.082-0.427-0.166-0.806-0.229-1.188c-0.113-0.705-0.229-1.408-0.316-2.116
		c-0.055-0.429-0.064-0.864-0.078-1.298c-0.006-0.189-0.039-0.349-0.252-0.369c-0.205-0.019-0.23,0.146-0.297,0.303
		c-0.201,0.475-0.438,0.935-0.668,1.413c-0.336-0.991-0.65-1.92-0.969-2.853c0.242,0.104,0.51,0.226,0.785,0.336
		c0.738,0.293,1.492,0.525,2.291,0.611c0.885,0.095,1.715-0.094,2.535-0.368c0.482-0.16,0.949-0.357,1.436-0.542
		C116.332,34.7,116.08,35.541,116.186,36.474z M121.863,16.168c0.105,0.108,0.277,0.23,0.41,0.224
		c1.293-0.067,2.418,0.382,3.461,1.084c0.738,0.497,1.379,1.109,2.025,1.817c-0.396,0.125-0.748,0.266-1.109,0.342
		c-0.389,0.081-0.793,0.161-1.182,0.131c-0.457-0.035-0.906-0.189-1.357-0.294c-0.111-0.025-0.236-0.105-0.326-0.075
		c-0.098,0.034-0.24,0.179-0.229,0.253c0.07,0.449,0.182,0.892,0.275,1.337c0.037,0.172,0.086,0.345,0.094,0.519
		c0.031,0.87,0.121,1.744,0.061,2.607c-0.092,1.267-0.523,2.45-1.195,3.532c-0.367,0.592-0.746,1.188-1.195,1.718
		c-0.49,0.58-1.041,1.118-1.615,1.618c-0.619,0.538-1.275,1.039-1.955,1.502c-1.037,0.709-2.168,1.253-3.383,1.578
		c-0.539,0.146-1.113,0.237-1.67,0.227c-0.711-0.015-1.408-0.217-2.078-0.474c-1.021-0.392-1.979-0.911-2.887-1.517
		c-1.113-0.742-2.131-1.605-3.016-2.604c-1.076-1.216-1.955-2.563-2.422-4.139c-0.186-0.632-0.326-1.278-0.307-1.945
		c0.021-0.665,0.01-1.334,0.08-1.995c0.063-0.6,0.221-1.189,0.326-1.785c0.023-0.129-0.002-0.266-0.006-0.397
		c-0.152,0.005-0.324-0.032-0.455,0.026c-0.51,0.228-1.043,0.357-1.596,0.315c-0.701-0.054-1.393-0.184-2.102-0.505
		c0.318-0.319,0.592-0.635,0.908-0.9c0.418-0.353,0.854-0.688,1.307-0.995c0.953-0.646,1.996-1.027,3.166-0.967
		c0.268,0.015,0.422-0.09,0.592-0.303c0.35-0.439,0.758-0.832,1.119-1.22c0.26,0.288,0.443,0.549,0.682,0.742
		c0.514,0.415,1.137,0.433,1.748,0.363c0.648-0.074,1.254-0.304,1.779-0.708c0.627-0.484,1.094-1.066,1.063-1.916
		c-0.006-0.173-0.033-0.353-0.086-0.518c-0.057-0.174,0.027-0.217,0.158-0.223c0.99-0.045,1.984-0.123,2.975-0.118
		c0.646,0.003,1.291,0.127,1.994,0.202c-0.334,1.029,0.02,1.79,0.746,2.42c0.434,0.377,0.936,0.643,1.496,0.77
		c0.787,0.176,1.563,0.212,2.266-0.289c0.174-0.124,0.348-0.247,0.572-0.405C121.227,15.465,121.535,15.828,121.863,16.168z
		 M128.383,10.878c-0.766-0.635-1.627-1.086-2.605-1.309c-0.793-0.179-1.584-0.227-2.35,0.077c-1.031,0.409-1.832,1.102-2.205,2.169
		c-0.238,0.683-0.355,1.409-0.535,2.114c-0.072,0.28-0.15,0.561-0.25,0.832c-0.168,0.465-0.563,0.652-1.01,0.705
		c-1.092,0.127-2.01-0.244-2.75-1.051c-0.428-0.464-0.445-1.005-0.271-1.568c0.301-0.974,0.844-1.801,1.531-2.546
		c0.842-0.913,1.828-1.626,2.951-2.146c0.697-0.323,1.422-0.548,2.195-0.648c1.236-0.157,2.398,0.063,3.502,0.593
		c0.748,0.358,1.395,0.873,1.889,1.555c0.426,0.584,0.734,1.223,0.93,1.919c0.018,0.065,0.02,0.135,0.037,0.256
		C129.053,11.48,128.729,11.166,128.383,10.878z"/>
	<path fill-rule="evenodd" clip-rule="evenodd" fill="#0071BC" d="M115.916,12.708c-0.334,1.029,0.02,1.79,0.746,2.42
		c0.434,0.377,0.936,0.643,1.496,0.77c0.787,0.176,1.563,0.212,2.266-0.289c0.174-0.124,0.348-0.247,0.572-0.405
		c0.23,0.261,0.539,0.624,0.867,0.964c0.105,0.108,0.277,0.23,0.41,0.224c1.293-0.067,2.418,0.382,3.461,1.084
		c0.738,0.497,1.379,1.109,2.025,1.817c-0.396,0.125-0.748,0.266-1.109,0.342c-0.389,0.081-0.793,0.161-1.182,0.131
		c-0.457-0.035-0.906-0.189-1.357-0.294c-0.111-0.025-0.236-0.105-0.326-0.075c-0.098,0.034-0.24,0.179-0.229,0.253
		c0.07,0.449,0.182,0.892,0.275,1.337c0.037,0.172,0.086,0.345,0.094,0.519c0.031,0.87,0.121,1.744,0.061,2.607
		c-0.092,1.267-0.523,2.45-1.195,3.532c-0.367,0.592-0.746,1.188-1.195,1.718c-0.49,0.58-1.041,1.118-1.615,1.618
		c-0.619,0.538-1.275,1.039-1.955,1.502c-1.037,0.709-2.168,1.253-3.383,1.578c-0.539,0.146-1.113,0.237-1.67,0.227
		c-0.711-0.015-1.408-0.217-2.078-0.474c-1.021-0.392-1.979-0.911-2.887-1.517c-1.113-0.742-2.131-1.605-3.016-2.604
		c-1.076-1.216-1.955-2.563-2.422-4.139c-0.186-0.632-0.326-1.278-0.307-1.945c0.021-0.665,0.01-1.334,0.08-1.995
		c0.063-0.6,0.221-1.189,0.326-1.785c0.023-0.129-0.002-0.266-0.006-0.397c-0.152,0.005-0.324-0.032-0.455,0.026
		c-0.51,0.228-1.043,0.357-1.596,0.315c-0.701-0.054-1.393-0.184-2.102-0.505c0.318-0.319,0.592-0.635,0.908-0.9
		c0.418-0.353,0.854-0.688,1.307-0.995c0.953-0.646,1.996-1.027,3.166-0.967c0.268,0.015,0.422-0.09,0.592-0.303
		c0.35-0.439,0.758-0.832,1.119-1.22c0.26,0.288,0.443,0.549,0.682,0.742c0.514,0.415,1.137,0.433,1.748,0.363
		c0.648-0.074,1.254-0.304,1.779-0.708c0.627-0.484,1.094-1.066,1.063-1.916c-0.006-0.173-0.033-0.353-0.086-0.518
		c-0.057-0.174,0.027-0.217,0.158-0.223c0.99-0.045,1.984-0.123,2.975-0.118C114.568,12.509,115.213,12.633,115.916,12.708z
		 M116.746,25.089c1.926-0.02,3.324-1.49,3.322-3.313c0-1.854-1.369-3.336-3.324-3.343c-1.922-0.005-3.332,1.477-3.336,3.331
		C113.404,23.581,114.818,25.086,116.746,25.089z M112.869,21.764c0.031-1.895-1.477-3.347-3.311-3.342
		c-1.811,0.006-3.205,1.338-3.313,3.128c-0.131,2.102,1.525,3.462,3.141,3.542C111.371,25.191,112.932,23.549,112.869,21.764z
		 M114.473,31.211c0.109-0.03,0.225-0.046,0.324-0.095c0.514-0.251,0.748-0.704,0.777-1.24c0.027-0.524-0.42-0.951-1.025-0.656
		c-0.455,0.224-0.809,0.809-0.746,1.306C113.85,30.901,113.984,31.215,114.473,31.211z M112.533,30.483
		c0.016-0.541-0.236-0.916-0.625-1.196c-0.436-0.312-0.982-0.161-1.119,0.392c-0.109,0.436,0.307,1.232,0.676,1.414
		C112.039,31.374,112.531,31.091,112.533,30.483z"/>
	<path fill-rule="evenodd" clip-rule="evenodd" fill="#FFFFFF" d="M97.201,11.76c0.072-0.213,0.143-0.425,0.215-0.639
		c0.273-0.813,0.715-1.524,1.342-2.105c0.744-0.69,1.609-1.182,2.619-1.363c0.494-0.089,0.994-0.181,1.492-0.189
		c1.281-0.021,2.451,0.405,3.553,1.019c0.906,0.504,1.709,1.144,2.398,1.92c0.715,0.802,1.285,1.694,1.51,2.758
		c0.125,0.585-0.107,1.07-0.549,1.471c-0.604,0.546-1.311,0.809-2.109,0.883c-0.822,0.076-1.482-0.464-1.635-1.283
		c-0.182-0.983-0.275-2.007-0.803-2.883c-0.584-0.969-1.414-1.644-2.57-1.849c-0.986-0.174-1.914,0.026-2.814,0.414
		c-0.9,0.387-1.676,0.953-2.342,1.669c-0.072,0.076-0.121,0.173-0.182,0.26C97.285,11.816,97.244,11.788,97.201,11.76z"/>
	<path fill-rule="evenodd" clip-rule="evenodd" fill="#FFFFFF" d="M129.441,11.831c-0.389-0.35-0.713-0.665-1.059-0.952
		c-0.766-0.635-1.627-1.086-2.605-1.309c-0.793-0.179-1.584-0.227-2.35,0.077c-1.031,0.409-1.832,1.102-2.205,2.169
		c-0.238,0.683-0.355,1.409-0.535,2.114c-0.072,0.28-0.15,0.561-0.25,0.832c-0.168,0.465-0.563,0.652-1.01,0.705
		c-1.092,0.127-2.01-0.244-2.75-1.051c-0.428-0.464-0.445-1.005-0.271-1.568c0.301-0.974,0.844-1.801,1.531-2.546
		c0.842-0.913,1.828-1.626,2.951-2.146c0.697-0.323,1.422-0.548,2.195-0.648c1.236-0.157,2.398,0.063,3.502,0.593
		c0.748,0.358,1.395,0.873,1.889,1.555c0.426,0.584,0.734,1.223,0.93,1.919C129.422,11.64,129.424,11.709,129.441,11.831z"/>
	<path fill-rule="evenodd" clip-rule="evenodd" d="M116.746,25.089c-1.928-0.003-3.342-1.508-3.338-3.325
		c0.004-1.854,1.414-3.335,3.336-3.331c1.955,0.007,3.324,1.49,3.324,3.343C120.07,23.599,118.672,25.069,116.746,25.089z
		 M119.557,21.747c0.021-1.563-1.273-2.812-2.783-2.814c-1.607-0.002-2.754,1.208-2.848,2.609c-0.117,1.818,1.266,3.058,2.807,3.065
		C118.154,24.615,119.551,23.539,119.557,21.747z"/>
	<path fill-rule="evenodd" clip-rule="evenodd" d="M112.869,21.764c0.063,1.785-1.498,3.428-3.482,3.328
		c-1.615-0.08-3.271-1.44-3.141-3.542c0.107-1.79,1.502-3.122,3.313-3.128C111.393,18.417,112.9,19.869,112.869,21.764z
		 M109.566,18.924c-1.744,0.05-2.85,1.346-2.838,2.829c0.012,1.738,1.268,2.869,2.834,2.847c1.717-0.026,2.807-1.226,2.822-2.831
		C112.402,20.172,111.195,18.979,109.566,18.924z"/>
	<path fill-rule="evenodd" clip-rule="evenodd" d="M114.473,31.211c-0.488,0.004-0.623-0.31-0.67-0.686
		c-0.063-0.497,0.291-1.082,0.746-1.306c0.605-0.295,1.053,0.132,1.025,0.656c-0.029,0.536-0.264,0.989-0.777,1.24
		C114.697,31.165,114.582,31.181,114.473,31.211z"/>
	<path fill-rule="evenodd" clip-rule="evenodd" d="M112.533,30.483c-0.002,0.607-0.494,0.891-1.068,0.609
		c-0.369-0.182-0.785-0.979-0.676-1.414c0.137-0.553,0.684-0.703,1.119-0.392C112.297,29.567,112.549,29.942,112.533,30.483z"/>
	<path fill-rule="evenodd" clip-rule="evenodd" fill="#FFFFFF" d="M119.557,21.747c-0.006,1.792-1.402,2.869-2.824,2.861
		c-1.541-0.008-2.924-1.247-2.807-3.065c0.094-1.402,1.24-2.612,2.848-2.609C118.283,18.935,119.578,20.184,119.557,21.747z
		 M117.041,22.324c0.002-0.604-0.391-1.009-0.988-1.01c-0.566-0.002-0.996,0.415-0.998,0.971c-0.004,0.594,0.406,1.013,0.988,1.016
		C116.627,23.304,117.037,22.902,117.041,22.324z"/>
	<path fill-rule="evenodd" clip-rule="evenodd" fill="#FFFFFF" d="M109.566,18.924c1.629,0.054,2.836,1.248,2.818,2.846
		c-0.016,1.605-1.105,2.804-2.822,2.831c-1.566,0.021-2.822-1.109-2.834-2.847C106.717,20.271,107.822,18.975,109.566,18.924z
		 M109.354,22.289c-0.002,0.576,0.4,0.993,0.932,1.017c0.662,0.029,1.035-0.502,1.057-0.99c0.023-0.522-0.471-0.991-0.994-1.004
		C109.734,21.294,109.299,21.838,109.354,22.289z"/>
	<path fill-rule="evenodd" clip-rule="evenodd" d="M117.041,22.324c-0.004,0.578-0.414,0.979-0.998,0.977
		c-0.582-0.003-0.992-0.422-0.988-1.016c0.002-0.556,0.432-0.974,0.998-0.971C116.65,21.315,117.043,21.72,117.041,22.324z"/>
	<path fill-rule="evenodd" clip-rule="evenodd" d="M109.354,22.289c-0.055-0.45,0.381-0.995,0.994-0.978
		c0.523,0.013,1.018,0.482,0.994,1.004c-0.021,0.488-0.395,1.02-1.057,0.99C109.754,23.281,109.352,22.865,109.354,22.289z"/>
</g>
</svg>
